<svg version="1.1" id="Layer_1" xmlns="http://www.w3.org/2000/svg" xmlns:xlink="http://www.w3.org/1999/xlink" x="0px" y="0px"
	 width="100%" viewBox="0 0 656 656" enable-background="new 0 0 656 656" xml:space="preserve">
<path fill="#000000" opacity="1.000000" stroke="none" 
	d="
M20.000000,1.000000 
	C232.299088,1.000000 444.598175,1.000000 656.948608,1.000000 
	C656.948608,219.597153 656.948608,438.194336 656.948608,656.895752 
	C438.438110,656.895752 219.876175,656.895752 1.000000,656.895752 
	C1.000000,439.639893 1.000000,222.279663 1.275033,4.639077 
	C4.761354,6.694206 8.451707,3.419707 11.595314,5.101161 
	C16.205833,7.567239 19.568340,5.280137 23.524286,2.725285 
	C22.021204,1.989464 21.010603,1.494732 20.000000,1.000000 
M207.331299,580.644836 
	C220.629898,585.377197 234.299026,588.837952 247.960266,592.288940 
	C256.597229,594.470703 265.439758,595.610168 274.289368,596.665405 
	C283.412842,597.753296 292.599609,598.641846 301.647125,599.854797 
	C310.595398,601.054443 319.424133,599.839294 328.346191,600.921692 
	C337.503235,602.032593 347.012848,599.831726 356.416077,600.542786 
	C362.373108,600.993225 368.281403,599.681519 374.143066,599.144226 
	C382.723969,598.357605 391.370728,596.689148 399.912231,595.550964 
	C415.789246,593.435120 431.241089,589.593506 446.303741,584.898865 
	C468.401794,578.011414 489.455139,568.280090 509.537781,556.475891 
	C530.028931,544.431580 548.814270,530.149414 565.566162,513.500427 
	C578.249146,500.895325 589.108032,486.559692 598.420410,471.099701 
	C609.703125,452.368561 618.118103,432.598145 623.710388,411.430603 
	C628.056763,394.978668 630.156677,378.242157 631.468994,361.433838 
	C632.703918,345.617859 632.069641,329.635468 629.297607,314.002289 
	C625.544739,292.838013 619.296509,272.400970 609.385681,253.114944 
	C599.425781,233.733459 587.871826,215.550064 572.139099,200.366852 
	C558.421387,187.128265 543.273682,175.702316 525.749084,167.901962 
	C510.715302,161.210297 495.162567,155.732956 480.329376,148.522598 
	C477.019714,146.913788 473.107483,147.102478 469.146637,148.349640 
	C460.569183,151.050430 454.306030,157.136459 447.359222,162.195068 
	C441.166809,166.704361 441.434143,167.651154 447.587128,172.162674 
	C460.812958,181.860123 472.161163,193.490356 482.074127,206.511627 
	C485.874847,211.504120 484.252014,217.593979 478.712646,220.007629 
	C471.915222,222.969421 464.560944,223.148010 457.387878,224.386520 
	C430.773682,228.981750 404.728455,225.895966 378.869690,219.471848 
	C372.261902,217.830261 370.347198,218.832733 367.305664,225.259064 
	C360.258667,240.148300 350.532288,253.124878 338.180878,264.023712 
	C333.077667,268.526733 326.361298,268.954132 321.741302,265.214508 
	C308.368042,254.389679 297.978485,241.077499 290.204163,225.787781 
	C286.974274,219.435562 285.001617,218.352966 278.014771,219.954376 
	C269.604523,221.882050 261.182495,224.081375 252.639664,225.033295 
	C239.117844,226.539993 225.543716,227.832779 211.852798,226.355713 
	C200.116837,225.089554 188.469238,223.490631 177.034729,220.538300 
	C174.535355,219.892975 171.829880,218.577957 171.674728,215.946335 
	C171.431519,211.820953 171.680664,207.640030 175.121643,204.267914 
	C180.931610,198.574219 185.587891,191.791840 191.820480,186.457138 
	C198.132339,181.054535 204.246597,175.421494 210.535172,169.991013 
	C213.306244,167.598083 213.622894,165.256683 210.695877,162.984085 
	C205.308121,158.800934 199.922028,154.594818 194.302734,150.736938 
	C189.287567,147.293839 183.772736,145.917603 177.741425,148.322128 
	C166.792343,152.687286 155.800156,156.944244 144.830719,161.258423 
	C131.175888,166.628693 118.067711,173.139648 106.211899,181.780884 
	C96.567467,188.810333 87.637154,196.630264 79.553360,205.633774 
	C68.346260,218.115936 59.229187,231.892578 51.217552,246.422272 
	C42.477795,262.272491 36.671276,279.380432 31.940351,296.817627 
	C27.927673,311.607483 26.094284,326.772156 25.531683,342.032623 
	C25.253475,349.578888 25.549097,357.125641 26.690222,364.764526 
	C28.030779,373.738434 27.789089,382.890137 29.580532,391.991821 
	C33.443691,411.619202 38.982246,430.508911 48.201855,448.347473 
	C56.749714,464.886261 66.305847,480.699280 78.001518,495.230957 
	C87.679016,507.255066 98.498497,518.354675 110.403488,527.862671 
	C121.855850,537.009216 134.173294,545.319702 146.941177,552.864136 
	C156.270065,558.376465 165.831161,563.398560 175.533585,568.060059 
	C185.614380,572.903442 196.317993,576.450439 207.331299,580.644836 
M363.008362,107.676712 
	C364.303558,103.379005 365.542297,99.063309 366.904633,94.786995 
	C370.836548,82.445000 365.015961,70.481911 354.511536,65.898773 
	C336.439728,58.013924 317.751617,57.379135 300.023224,67.502617 
	C293.471497,71.243866 289.731323,77.170822 289.104584,85.402817 
	C288.202545,97.251862 293.671143,106.958847 297.842163,117.194427 
	C300.086914,122.702995 303.474762,127.600662 306.497253,132.815735 
	C301.997253,127.614899 296.252777,124.627991 290.448914,121.427162 
	C282.249847,116.905327 273.713348,112.999435 264.801147,110.864197 
	C246.519043,106.484055 228.083923,102.775513 208.926254,105.214828 
	C199.352875,106.433792 189.877243,107.750954 180.586197,110.316750 
	C178.146667,110.990440 175.927444,112.178085 174.145554,113.999969 
	C171.621399,116.580765 171.434189,122.214874 173.633347,124.477707 
	C181.084625,132.144730 190.890640,136.273895 200.015259,141.151459 
	C211.412109,147.243668 223.962799,150.735474 236.511673,154.093842 
	C241.827744,155.516525 247.703186,155.003220 252.805023,158.027023 
	C251.382111,159.656601 249.733154,160.052277 248.184097,160.589294 
	C241.449615,162.923996 234.591324,165.080032 228.671478,169.143997 
	C217.554993,176.775452 206.844467,184.970825 199.193893,196.320023 
	C194.904877,202.682526 196.575836,207.453323 203.789185,210.267776 
	C206.532913,211.338272 209.293091,212.491699 212.378738,212.723206 
	C226.327362,213.769760 240.014267,214.150711 253.836472,210.045670 
	C265.990936,206.435928 277.939972,203.054626 288.088013,195.084549 
	C292.186218,191.865906 294.152618,192.804993 294.832092,198.024429 
	C295.323639,201.800232 294.926453,205.706055 296.507843,209.321991 
	C300.631256,218.750381 303.964539,228.497192 309.329010,237.414368 
	C313.160645,243.783539 317.520081,249.339005 323.620026,253.660263 
	C327.478394,256.393585 330.585144,255.821060 333.951965,253.038879 
	C346.915039,242.326767 353.486267,227.741318 358.967957,212.412781 
	C361.128387,206.371582 361.586334,199.813614 364.483337,193.707138 
	C365.551270,194.165619 366.389404,194.348160 367.009399,194.818344 
	C375.621460,201.349442 385.701019,204.928207 395.645477,208.598618 
	C401.164093,210.635483 407.058441,212.071533 412.810242,213.117432 
	C419.414520,214.318298 426.369781,213.490158 433.162323,213.782211 
	C440.067322,214.079086 446.713165,213.258759 453.097351,210.481689 
	C460.702820,207.173370 462.235443,200.139481 456.581879,194.108536 
	C453.971100,191.323517 451.418884,188.479813 448.726807,185.775528 
	C436.421661,173.414429 422.053528,164.539810 405.097382,160.030731 
	C403.586182,159.628860 401.740601,159.450851 401.100769,157.399902 
	C402.689270,156.192947 404.598480,156.646179 406.340332,156.376602 
	C412.558685,155.414215 418.896942,154.969742 424.988190,153.495972 
	C438.273499,150.281586 451.100861,145.601242 463.172699,139.148010 
	C470.194702,135.394241 477.281189,131.546219 482.558167,125.312531 
	C486.259155,120.940559 485.808594,115.701630 481.432007,113.365448 
	C474.190491,109.499992 466.248077,106.802589 458.288300,106.066177 
	C446.523071,104.977715 434.729523,103.319756 422.704590,105.124680 
	C410.208710,107.000298 397.771240,108.442284 385.628204,112.422073 
	C376.105988,115.542931 367.611816,120.761162 357.634430,124.597267 
	C357.637146,118.250183 362.342407,113.963341 363.008362,107.676712 
z"/>
</svg>